<?xml version="1.0" standalone="no"?><svg xmlns="http://www.w3.org/2000/svg" viewBox="0 0 1440 320"><path fill="#a2d9ff" fill-opacity="1" d="M0,96L21.8,101.3C43.6,107,87,117,131,133.3C174.5,149,218,171,262,170.7C305.5,171,349,149,393,149.3C436.4,149,480,171,524,160C567.3,149,611,107,655,85.3C698.2,64,742,64,785,69.3C829.1,75,873,85,916,96C960,107,1004,117,1047,112C1090.9,107,1135,85,1178,117.3C1221.8,149,1265,235,1309,240C1352.7,245,1396,171,1418,133.3L1440,96L1440,320L1418.2,320C1396.4,320,1353,320,1309,320C1265.5,320,1222,320,1178,320C1134.5,320,1091,320,1047,320C1003.6,320,960,320,916,320C872.7,320,829,320,785,320C741.8,320,698,320,655,320C610.9,320,567,320,524,320C480,320,436,320,393,320C349.1,320,305,320,262,320C218.2,320,175,320,131,320C87.3,320,44,320,22,320L0,320Z"></path></svg>