<?xml version='1.0' encoding='utf-8'?>
<!DOCTYPE svg PUBLIC '-//W3C//DTD SVG 1.1//EN' 'http://www.w3.org/Graphics/SVG/1.1/DTD/svg11.dtd'>
<svg version="1.1" xmlns="http://www.w3.org/2000/svg" viewBox="0 0 512 512" fill="#0080FF" xmlns:xlink="http://www.w3.org/1999/xlink" enable-background="new 0 0 512 512">
  <g>
    <g>
      <path d="m412.3,460h-312.6v-343h34.1l-8.2,35.2c-3.1,13.5 7.2,26.4 21.1,26.4h218.6c13.9,0 24.2-12.9 21.1-26.4l-8.2-35.2h34.1v343h-5.68434e-14zm-234-356.6h155.2l7.8,34.5h-170.8l7.8-34.5zm77.7-51.6c11.6,0 20.5,5 24.1,10.7h-48.3c3.7-5.7 12.6-10.7 24.2-10.7zm158.5,24.2h-46c-3.3-8-11.1-13.4-20.1-13.4h-25.8c-3.3-28.9-31.9-51.6-66.6-51.6-34.7,0-63.3,22.7-66.6,51.6h-25.8c-8.9,0-16.8,5.4-20.1,13.4h-46c-21.5,0-39,17.4-39,38.9v347.2c0,21.4 17.5,38.9 39,38.9h316.9c21.5,0 39-17.4 39-38.9v-347.2c0.1-21.4-17.4-38.9-38.9-38.9z"/>
      <path d="m359.6,234.3h-207.2c-11.3,0-20.5,9.1-20.5,20.4 0,11.3 9.2,20.4 20.5,20.4h207.1c11.3,0 20.5-9.1 20.5-20.4 0.1-11.3-9.1-20.4-20.4-20.4z"/>
      <path d="m359.6,353.5h-207.2c-11.3,0-20.5,9.1-20.5,20.4 0,11.3 9.2,20.4 20.5,20.4h207.1c11.3,0 20.5-9.1 20.5-20.4 0.1-11.3-9.1-20.4-20.4-20.4z"/>
    </g>
  </g>
</svg>
